<svg class="animated" id="freepik_stories-to-the-stars" xmlns="http://www.w3.org/2000/svg" xmlns:xlink="http://www.w3.org/1999/xlink" viewBox="0 0 500 500" version="1.1" xmlns:svgjs="http://svgjs.com/svgjs"><style>svg#freepik_stories-to-the-stars:not(.animated) .animable {opacity: 0;}svg#freepik_stories-to-the-stars.animated #freepik--background-simple--inject-9 {animation: 1.5s Infinite  linear wind;animation-delay: 0s;}svg#freepik_stories-to-the-stars.animated #freepik--space-shuttle--inject-9 {animation: 2.0s 1 forwards cubic-bezier(.36,-0.01,.5,1.38) slideUp;animation-delay: 0.9s;opacity: 0}svg#freepik_stories-to-the-stars.animated #freepik--Smoke--inject-9 {animation: 3s Infinite  linear wind;animation-delay: 0s;}svg#freepik_stories-to-the-stars.animated #freepik--Astronaut--inject-9 {animation: 1s 1 forwards cubic-bezier(.36,-0.01,.5,1.38) slideUp;animation-delay: 0.1s;opacity: 0}            @keyframes wind {                0% {                    transform: rotate( 0deg );                }                25% {                    transform: rotate( 1deg );                }                75% {                    transform: rotate( -1deg );                }            }                    @keyframes slideUp {                0% {                    opacity: 0;                    transform: translateY(30px);                }                100% {                    opacity: 1;                    transform: inherit;                }            }        </style><g id="freepik--background-simple--inject-9" class="animable" style="transform-origin: 252.076px 258.592px;"><path d="M391.64,102.69C362.28,83.18,326.79,75.87,288.58,92.4c-37.77,16.34-57.15,54.93-89.81,77.83-34.74,24.35-80,27-117.68,45.84-26.62,13.34-44.58,38-48.43,67.59C25.13,341.6,57,400.21,110.92,423.48c33.63,14.51,72.5,13.69,105.93-1,25.66-11.27,47.85-29.35,73.41-41.08C334.64,361,386.61,362,428.9,336.07c44.76-27.42,49.77-76.26,38.67-121.33C457.48,173.78,429.71,128,391.64,102.69Z" style="fill: #00FFFF; transform-origin: 252.076px 258.592px;" id="el7r93lt9a27o" class="animable"></path><g id="eljh2uo7ifsfh"><path d="M391.64,102.69C362.28,83.18,326.79,75.87,288.58,92.4c-37.77,16.34-57.15,54.93-89.81,77.83-34.74,24.35-80,27-117.68,45.84-26.62,13.34-44.58,38-48.43,67.59C25.13,341.6,57,400.21,110.92,423.48c33.63,14.51,72.5,13.69,105.93-1,25.66-11.27,47.85-29.35,73.41-41.08C334.64,361,386.61,362,428.9,336.07c44.76-27.42,49.77-76.26,38.67-121.33C457.48,173.78,429.71,128,391.64,102.69Z" style="fill: rgb(255, 255, 255); opacity: 0.7; transform-origin: 252.076px 258.592px;" class="animable" id="elu1r20n5qdj"></path></g></g><g id="freepik--Stars--inject-9" class="animable" style="transform-origin: 249.704px 248.165px;"><path d="M232.19,433.08c-28.87,0-55.38-4.94-78.8-14.67-40.13-16.69-74.5-49.57-91.93-88-1.2-2.63-2.37-5.45-3.48-8.36-11.7-30.51-14.71-65.6-8.7-101.49,8.8-52.58,35.49-98.21,73.2-125.17,29-20.73,65.38-32.14,102.48-32.14a180.37,180.37,0,0,1,33.69,3.17c31.86,6.07,58.79,22.33,75.84,45.77,3,4.19,5.93,8.47,8.73,12.62,6.21,9.19,12.07,17.88,19.69,26,12.19,13,26,24.5,36.69,33.07s21.68,18.27,31.38,32.42a134.81,134.81,0,0,1,18.09,39.83C468.44,326.12,415.77,386,353.73,409c-29.57,11-74.67,24.05-121.53,24.05Z" style="fill: rgb(38, 50, 56); transform-origin: 249.704px 248.165px;" id="elzbdt2lxehak" class="animable"></path><path d="M216,97.52a2.94,2.94,0,1,1-2.94-2.94A2.94,2.94,0,0,1,216,97.52Z" style="fill: rgb(255, 255, 255); transform-origin: 213.06px 97.52px;" id="eltmp5467i9cq" class="animable"></path><path d="M395.89,212.14A2.94,2.94,0,1,1,393,209.2,2.93,2.93,0,0,1,395.89,212.14Z" style="fill: rgb(255, 255, 255); transform-origin: 392.95px 212.14px;" id="el73h6tzmoeuu" class="animable"></path><circle cx="81.85" cy="231.66" r="2.94" style="fill: rgb(255, 255, 255); transform-origin: 81.85px 231.66px;" id="elh27fitqcxzp" class="animable"></circle><circle cx="130.01" cy="135.34" r="2.94" style="fill: rgb(255, 255, 255); transform-origin: 130.01px 135.34px;" id="eld95ihgleeob" class="animable"></circle><path d="M249.47,85.48A1.47,1.47,0,1,1,248,84,1.46,1.46,0,0,1,249.47,85.48Z" style="fill: rgb(255, 255, 255); transform-origin: 248px 85.47px;" id="el521fp2xh6mj" class="animable"></path><path d="M294.89,134.9a1.47,1.47,0,1,1-1.46-1.47A1.46,1.46,0,0,1,294.89,134.9Z" style="fill: rgb(255, 255, 255); transform-origin: 293.42px 134.9px;" id="eltbew9i99lp" class="animable"></path><circle cx="94.43" cy="169.18" r="1.47" style="fill: rgb(255, 255, 255); transform-origin: 94.43px 169.18px;" id="elzhl73lvcobj" class="animable"></circle><path d="M144.33,130.56a1.47,1.47,0,1,1-1.47-1.46A1.47,1.47,0,0,1,144.33,130.56Z" style="fill: rgb(255, 255, 255); transform-origin: 142.86px 130.57px;" id="eluemdtw9wuip" class="animable"></path><circle cx="212.02" cy="81.26" r="1.47" style="fill: rgb(255, 255, 255); transform-origin: 212.02px 81.26px;" id="el66exbl5nxn8" class="animable"></circle><circle cx="250.04" cy="162.24" r="1.47" style="fill: rgb(255, 255, 255); transform-origin: 250.04px 162.24px;" id="el5vds5kgis4p" class="animable"></circle><circle cx="61.89" cy="289.97" r="1.47" style="fill: rgb(255, 255, 255); transform-origin: 61.89px 289.97px;" id="elazx3zim7vbb" class="animable"></circle><circle cx="86.35" cy="311.93" r="1.47" style="fill: rgb(255, 255, 255); transform-origin: 86.35px 311.93px;" id="el56l8lgurhya" class="animable"></circle><circle cx="76.64" cy="320.88" r="1.47" style="fill: rgb(255, 255, 255); transform-origin: 76.64px 320.88px;" id="ell7s7n34y2pc" class="animable"></circle><circle cx="176.44" cy="86.74" r="1.47" style="fill: rgb(255, 255, 255); transform-origin: 176.44px 86.74px;" id="el4rcrsfecbe" class="animable"></circle><circle cx="202.47" cy="157.03" r="1.47" style="fill: rgb(255, 255, 255); transform-origin: 202.47px 157.03px;" id="elp36ilxz8bfn" class="animable"></circle><g id="elqe3pmgoyg"><circle cx="223.12" cy="146.79" r="7.12" style="fill: rgb(255, 255, 255); transform-origin: 223.12px 146.79px; transform: rotate(-9.2deg);" class="animable" id="elb9tgfgz43xs"></circle></g><circle cx="71" cy="201.29" r="7.12" style="fill: rgb(255, 255, 255); transform-origin: 71px 201.29px;" id="el3m70x7zyd0j" class="animable"></circle><circle cx="119.94" cy="173.43" r="4.43" style="fill: rgb(255, 255, 255); transform-origin: 119.94px 173.43px;" id="el993b2fwnygg" class="animable"></circle><circle cx="287" cy="210.75" r="4.43" style="fill: rgb(255, 255, 255); transform-origin: 287px 210.75px;" id="eliycxlivadu" class="animable"></circle><path d="M293.68,96.29c-3.55-.49-3.94-.88-4.43-4.43-.48,3.55-.87,3.94-4.42,4.43,3.55.48,3.94.87,4.42,4.42C289.74,97.16,290.13,96.77,293.68,96.29Z" style="fill: rgb(255, 255, 255); transform-origin: 289.255px 96.285px;" id="ell9d7f5plkdm" class="animable"></path></g><g id="freepik--space-shuttle--inject-9" class="animable animator-active" style="transform-origin: 333.21px 165.583px;"><polygon points="324.71 253.65 303.81 253.65 309.5 207.94 309.5 199.75 319.02 199.75 319.02 207.94 324.71 253.65" style="fill: rgb(255, 255, 255); stroke: rgb(38, 50, 56); stroke-linecap: round; stroke-linejoin: round; stroke-width: 1.07731px; transform-origin: 314.26px 226.7px;" id="elzt6hf1u4yc" class="animable"></polygon><polygon points="361.43 253.65 341.64 253.65 346.78 208.14 346.78 199.75 356.29 199.75 356.29 207.94 361.43 253.65" style="fill: rgb(255, 255, 255); stroke: rgb(38, 50, 56); stroke-linecap: round; stroke-linejoin: round; stroke-width: 1.07731px; transform-origin: 351.535px 226.7px;" id="elp0zmdcto90p" class="animable"></polygon><path d="M315.49,101.43a1.19,1.19,0,0,0-2.24,0L311.67,106a46.59,46.59,0,0,0-2.58,15.3V205h10.56v-83.7a46.59,46.59,0,0,0-2.58-15.3Z" style="fill: rgb(255, 255, 255); stroke: rgb(38, 50, 56); stroke-linecap: round; stroke-linejoin: round; stroke-width: 1.07731px; transform-origin: 314.37px 152.821px;" id="elbpvp3h63zkw" class="animable"></path><rect x="307.47" y="204.32" width="13.81" height="6.51" style="fill: rgb(38, 50, 56); stroke: rgb(255, 255, 255); stroke-linecap: round; stroke-linejoin: round; stroke-width: 1.07731px; transform-origin: 314.375px 207.575px;" id="elzjsdxdc64nk" class="animable"></rect><path d="M352.82,101.43a1.18,1.18,0,0,0-2.23,0L349,106a46.59,46.59,0,0,0-2.58,15.3V205H357v-83.7a46.85,46.85,0,0,0-2.57-15.3Z" style="fill: rgb(255, 255, 255); stroke: rgb(38, 50, 56); stroke-linecap: round; stroke-linejoin: round; stroke-width: 1.07731px; transform-origin: 351.71px 152.818px;" id="elnacjn8pk7b" class="animable"></path><path d="M334.19,78.06a1.19,1.19,0,0,0-2,0l-3.47,5.83a42.46,42.46,0,0,0-6,21.69v79.9h20.82v-79.9a42.46,42.46,0,0,0-6-21.69Z" style="fill: rgb(38, 50, 56); stroke: rgb(255, 255, 255); stroke-linecap: round; stroke-linejoin: round; stroke-width: 1.07731px; transform-origin: 333.13px 131.498px;" id="eljhy50uc7cr" class="animable"></path><rect x="344.8" y="204.32" width="13.81" height="6.51" style="fill: rgb(38, 50, 56); stroke: rgb(255, 255, 255); stroke-linecap: round; stroke-linejoin: round; stroke-width: 1.07731px; transform-origin: 351.705px 207.575px;" id="elpk3jus6gsdl" class="animable"></rect><path d="M326.78,128.48s-5.61,28.29-16.57,39.25A75.66,75.66,0,0,0,300.53,179a10.83,10.83,0,0,0-1.79,6v10.81h30.33V125.43Z" style="fill: rgb(255, 255, 255); stroke: rgb(38, 50, 56); stroke-linecap: round; stroke-linejoin: round; stroke-width: 1.07731px; transform-origin: 313.905px 160.62px;" id="elerny7tvieie" class="animable"></path><line x1="299" y1="191.43" x2="326.27" y2="191.43" style="fill: none; stroke: rgb(38, 50, 56); stroke-linecap: round; stroke-linejoin: round; stroke-width: 1.07731px; transform-origin: 312.635px 191.43px;" id="elixg1cwsr5fg" class="animable"></line><path d="M339.64,128.87s5.61,28.28,16.57,39.24a75.66,75.66,0,0,1,9.68,11.25,10.86,10.86,0,0,1,1.79,6v10.81H337.35V125.81Z" style="fill: rgb(255, 255, 255); stroke: rgb(38, 50, 56); stroke-linecap: round; stroke-linejoin: round; stroke-width: 1.07731px; transform-origin: 352.515px 160.99px;" id="elzt843zm9g4" class="animable"></path><line x1="340.03" y1="191.43" x2="367.29" y2="191.43" style="fill: none; stroke: rgb(38, 50, 56); stroke-linecap: round; stroke-linejoin: round; stroke-width: 1.07731px; transform-origin: 353.66px 191.43px;" id="elo9nj7kvl9ib" class="animable"></line><path d="M333.86,108.39a5.53,5.53,0,0,0-1.15,0,5.14,5.14,0,0,0-4.43,4.51l0,.25c-1,4.9-2.24,11.26-2.24,16.82V197.4h14.6V130c0-5.56-1.24-11.92-2.25-16.82l0-.25A5.14,5.14,0,0,0,333.86,108.39Z" style="fill: rgb(255, 255, 255); stroke: rgb(38, 50, 56); stroke-linecap: round; stroke-linejoin: round; stroke-width: 1.07731px; transform-origin: 333.34px 152.88px;" id="elj77wy2qs21a" class="animable"></path><path d="M328,183.53h.74a3.31,3.31,0,0,1,3.31,3.31v10a0,0,0,0,1,0,0h-7.37a0,0,0,0,1,0,0v-10A3.31,3.31,0,0,1,328,183.53Z" style="fill: rgb(255, 255, 255); stroke: rgb(38, 50, 56); stroke-linecap: round; stroke-linejoin: round; stroke-width: 1.07731px; transform-origin: 328.365px 190.185px;" id="eluoli7x1idhh" class="animable"></path><rect x="323.5" y="196.17" width="9.65" height="6.51" style="fill: rgb(38, 50, 56); stroke: rgb(38, 50, 56); stroke-linecap: round; stroke-linejoin: round; stroke-width: 1.07731px; transform-origin: 328.325px 199.425px;" id="eldi95esuiqv" class="animable"></rect><path d="M337.89,183.53h.74a3.31,3.31,0,0,1,3.31,3.31v10a0,0,0,0,1,0,0h-7.37a0,0,0,0,1,0,0v-10A3.31,3.31,0,0,1,337.89,183.53Z" style="fill: rgb(255, 255, 255); stroke: rgb(38, 50, 56); stroke-linecap: round; stroke-linejoin: round; stroke-width: 1.07731px; transform-origin: 338.255px 190.185px;" id="elwwxgi9v3il" class="animable"></path><rect x="333.44" y="196.17" width="9.65" height="6.51" style="fill: rgb(38, 50, 56); stroke: rgb(38, 50, 56); stroke-linecap: round; stroke-linejoin: round; stroke-width: 1.07731px; transform-origin: 338.265px 199.425px;" id="elaxxgrvdlnq" class="animable"></rect><path d="M333.86,108.39a5.53,5.53,0,0,0-1.15,0,5.1,5.1,0,0,0-4.33,4h9.81A5.09,5.09,0,0,0,333.86,108.39Z" style="fill: rgb(38, 50, 56); stroke: rgb(38, 50, 56); stroke-linecap: round; stroke-linejoin: round; stroke-width: 1.07731px; transform-origin: 333.285px 110.375px;" id="ell9paac2yh6p" class="animable"></path><path d="M330.34,120.47A7.65,7.65,0,0,0,327,127c0,.17,0,.34,0,.51a7.58,7.58,0,0,1,3.29-6Z" style="fill: rgb(38, 50, 56); transform-origin: 328.669px 123.99px;" id="el1soobiinkhw" class="animable"></path><path d="M335.69,120.07a5.49,5.49,0,0,0-4.58,0v1a5.6,5.6,0,0,1,4.58,0Z" style="fill: rgb(38, 50, 56); transform-origin: 333.4px 120.32px;" id="el36leeznr54c" class="animable"></path><path d="M336.46,120.47v1a7.55,7.55,0,0,1,3.29,6c0-.17,0-.34,0-.51A7.65,7.65,0,0,0,336.46,120.47Z" style="fill: rgb(38, 50, 56); transform-origin: 338.106px 123.97px;" id="el4v1lwubr81q" class="animable"></path><path d="M337.88,111.47a5,5,0,0,0-4-3.08,5.53,5.53,0,0,0-1.15,0,5,5,0,0,0-4,3" style="fill: none; stroke: rgb(255, 255, 255); stroke-linecap: round; stroke-linejoin: round; stroke-width: 0.538656px; transform-origin: 333.305px 109.915px;" id="elsfety5r40y" class="animable"></path></g><g id="freepik--Smoke--inject-9" class="animable" style="transform-origin: 266.26px 336.566px;"><path d="M447.63,256.58c-.29-1-.59-2.07-.9-3.1a32.78,32.78,0,0,0-20.32,18.35c-.08.18-.14.36-.22.54a12.66,12.66,0,0,0-2.17-.51,20.27,20.27,0,0,0-38.41-6.51,9.74,9.74,0,0,0-8.12-3.26,15.13,15.13,0,0,0-22.36-15.58,10.53,10.53,0,0,0-17.35-.68,10.47,10.47,0,0,0-2.08,6,10.48,10.48,0,0,0-3.86-1.09,10.24,10.24,0,0,0-2.58-5.61,10.49,10.49,0,0,0-16.76,1.36,15.13,15.13,0,0,0-22.37,15.58,9.7,9.7,0,0,0-8.11,3.26,20.27,20.27,0,0,0-38.42,6.51,13.11,13.11,0,0,0-2.17.51l-.21-.54a32.89,32.89,0,0,0-62.7,7.95,35.29,35.29,0,0,0-16,20.33q-1.08-.06-2.16-.06a45.39,45.39,0,0,0-41.27,26.49A41.71,41.71,0,0,0,80.9,360.07a176,176,0,0,0,14.46,16.85h246c32.91,0,64.83-12.18,88.76-34.77,6.86-6.47,12.37-13.24,14.95-20.28a105.44,105.44,0,0,0,6.5-33.73A108.22,108.22,0,0,0,447.63,256.58Z" style="fill: rgb(255, 255, 255); transform-origin: 266.25px 309.246px;" id="elpq9w8hrhlp" class="animable"></path><g id="elut9iz38g22"><path d="M448.53,288A33.79,33.79,0,0,0,431,292.9a22,22,0,0,0-30.05-6.08A28.75,28.75,0,0,0,376,272.45c-.93,0-1.86.05-2.77.14a11.89,11.89,0,0,0-16.18-3.53c0-.25,0-.5,0-.75a11.91,11.91,0,0,0-19.27-9.37,10.6,10.6,0,0,0-16.9,4.53,10.61,10.61,0,0,0-16.6,7.5,14.23,14.23,0,0,0-19.5,10.53,11.8,11.8,0,0,0-11-1.26l-.39,0a18.61,18.61,0,0,0-4.44.54,10.45,10.45,0,0,0-5.12-1.34,10.6,10.6,0,0,0-10,7.09,10.64,10.64,0,0,0-9.94-1.17,34.16,34.16,0,0,0-38.66,18,18.89,18.89,0,0,0-16,10.89,34.19,34.19,0,0,0-52.49,39.31,34,34,0,0,0-19.42-4.71A34.34,34.34,0,0,0,88.12,369,178.59,178.59,0,0,0,154,417c23.23,9.66,49.55,14.56,78.22,14.56h0c46.64,0,91.55-13,121-24,51.8-19.21,97-64.35,98.4-119.48C450.59,288.05,449.57,288,448.53,288Z" style="fill: rgb(38, 50, 56); opacity: 0.5; transform-origin: 269.87px 343.973px;" class="animable" id="el95jbnaa1onw"></path></g><path d="M435.54,323.65a22,22,0,0,0-30.05-6.08A28.72,28.72,0,0,0,380.6,303.2c-.94,0-1.86.05-2.77.14a11.9,11.9,0,0,0-16.18-3.54c0-.24,0-.49,0-.75a11.91,11.91,0,0,0-19.27-9.36,10.6,10.6,0,0,0-16.9,4.53,10.61,10.61,0,0,0-16.6,7.5,14.24,14.24,0,0,0-19.75,12.91,18.86,18.86,0,0,0-28.28,7.28,34.16,34.16,0,0,0-53.4,18.34,14.26,14.26,0,0,0-11.14,13.67,18.85,18.85,0,0,0-28.27,7.28,34.18,34.18,0,0,0-54.63,27.4c0,.19,0,.37,0,.56h-.15v3.9A174.61,174.61,0,0,0,154,417c23.23,9.66,49.55,14.56,78.22,14.56h0c46.64,0,91.55-13,121-24,41.56-15.42,78.88-47.53,92.72-88.09A33.61,33.61,0,0,0,435.54,323.65Z" style="fill: rgb(38, 50, 56); transform-origin: 279.6px 359.348px;" id="elm9b9oxai9sl" class="animable"></path></g><g id="freepik--Astronaut--inject-9" class="animable" style="transform-origin: 226.237px 306.784px;"><g id="elu08j4ixz0x"><path d="M239.29,199.75a52.16,52.16,0,0,0-28.35-8.52h-.16a74.82,74.82,0,1,0,54.14,126.44,85.82,85.82,0,0,0-25.63-117.92Z" style="fill: rgb(255, 255, 255); stroke: rgb(38, 50, 56); stroke-miterlimit: 10; stroke-width: 1.07731px; opacity: 0.5; transform-origin: 207.114px 266.05px;" class="animable" id="elwo5jeufipss"></path></g><path d="M232.9,199.75c-.13-.09-.26-.16-.38-.25,19.67,17.39,32.29,44.15,32.29,74.17a102,102,0,0,1-13,50.2,77.22,77.22,0,0,0,6.71-6.2A85.82,85.82,0,0,0,232.9,199.75Z" style="fill: rgb(255, 255, 255); transform-origin: 252.206px 261.685px;" id="eltj31gmd8a7j" class="animable"></path><path d="M264.92,317.67a74.81,74.81,0,1,1-54.14-126.44h.16a52.16,52.16,0,0,1,28.35,8.52,86.11,86.11,0,0,1,33.1,40.6,90.48,90.48,0,1,0,5.9,32.18c0-.17,0-.34,0-.51A85.43,85.43,0,0,1,264.92,317.67Z" style="fill: #00FFFF; stroke: rgb(38, 50, 56); stroke-miterlimit: 10; stroke-width: 1.07731px; transform-origin: 187.81px 272.488px;" id="elc65lxfurdlj" class="animable"></path><path d="M111,234.48a90.53,90.53,0,0,0,14.2,97.83" style="fill: #00FFFF; stroke: rgb(38, 50, 56); stroke-linecap: round; stroke-linejoin: round; stroke-width: 2.15462px; transform-origin: 113.915px 283.395px;" id="elnpd1f5ugb6" class="animable"></path><path d="M122.26,216.24a91.06,91.06,0,0,0-6.48,9.28" style="fill: #00FFFF; stroke: rgb(38, 50, 56); stroke-linecap: round; stroke-linejoin: round; stroke-width: 2.15462px; transform-origin: 119.02px 220.88px;" id="elhnbvzdtnw7" class="animable"></path><g style="clip-path: url(&quot;#freepik--clip-path--inject-9&quot;); transform-origin: 184.02px 263.872px;" id="elg7h40gepqf8" class="animable"><path d="M139.84,215.4c14-13.44,33.54-19.3,52.76-16.77,2.83.37,5.83.88,9,1.57,18.76,4.13,29.64,23.64,31.14,24.77s-2.25,12-2.25,12,15,43.9,13.13,50.66-25.14,14.26-25.14,14.26l3.38,13.88-71.29,13.88s-6-27-13.89-37.89-13.93-23.15-12-45.78C125.76,232.75,132.22,222.74,139.84,215.4Z" style="fill: rgb(255, 255, 255); transform-origin: 184.05px 263.853px;" id="el996zi25pesr" class="animable"></path><g style="clip-path: url(&quot;#freepik--clip-path-2--inject-9&quot;); transform-origin: 180.079px 286.833px;" id="elf6kvtkod3sj" class="animable"><g id="el904i2d5kchi"><path d="M220.4,298.57c-11.31.68-32.89-10.28-41.11-27.41a53,53,0,0,0-23.63-24,81.33,81.33,0,0,0-30.86-2.66c-.06.48-.12,1-.16,1.45-1.93,22.63,4.12,34.89,12,45.78s13.89,37.89,13.89,37.89l71.29-13.88-3.38-13.88a115.51,115.51,0,0,0,17.44-7.36C231.14,296.44,225.46,298.26,220.4,298.57Z" style="opacity: 0.5; transform-origin: 180.079px 286.833px;" class="animable" id="ellxcmget79s"></path></g></g><path d="M139.84,215.4c14-13.44,33.54-19.3,52.76-16.77,2.83.37,5.83.88,9,1.57,18.76,4.13,29.64,23.64,31.14,24.77s-2.25,12-2.25,12,15,43.9,13.13,50.66-25.14,14.26-25.14,14.26l3.38,13.88-71.29,13.88s-6-27-13.89-37.89-13.93-23.15-12-45.78C125.76,232.75,132.22,222.74,139.84,215.4Z" style="fill: none; stroke: rgb(38, 50, 56); stroke-miterlimit: 10; stroke-width: 1.07731px; transform-origin: 184.05px 263.853px;" id="elwh8ngzoezn" class="animable"></path><path d="M212.81,219.71s.75.75-6,.75-18.39-1.12-22.14,2.26-9.76,13.13-7.5,13.13,5.25-3.38,7.5-3.38a26.61,26.61,0,0,0,5.25-.75s-9.38,5.63-6,6,18.39-1.87,22.51-4.5,7.13-4.5,7.51-6.75S215.44,222.72,212.81,219.71Z" style="fill: rgb(38, 50, 56); stroke: rgb(38, 50, 56); stroke-miterlimit: 10; stroke-width: 1.07731px; transform-origin: 195.59px 228.735px;" id="elty7zygdv6uk" class="animable"></path><path d="M228.51,219.46c-.29.59-1.77,3.21-4.44,2.88a7.17,7.17,0,0,1-4.5-2.25,15.16,15.16,0,0,1,.37,4.13c0,3,.38,5.25,2.25,7.5s8.26,5.25,8.26,5.25,2.25-6.75,2.25-12C232.22,224.61,230.81,222.42,228.51,219.46Z" style="fill: rgb(38, 50, 56); stroke: rgb(38, 50, 56); stroke-miterlimit: 10; stroke-width: 1.07731px; transform-origin: 226.135px 228.215px;" id="el7oye8jjo0qx" class="animable"></path><path d="M218.44,230.6s15,7.12,15.76,9.38-3.75,10.88-3.75,10.88" style="fill: rgb(255, 255, 255); stroke: rgb(38, 50, 56); stroke-miterlimit: 10; stroke-width: 1.07731px; transform-origin: 226.363px 240.73px;" id="elb2xbutbwo2" class="animable"></path><path d="M234.2,240s-22.51,13.88-19.51,15.75,11.25-1.12,13.51-3S234.57,244.85,234.2,240Z" style="fill: rgb(38, 50, 56); stroke: rgb(38, 50, 56); stroke-miterlimit: 10; stroke-width: 1.07731px; transform-origin: 224.319px 248.171px;" id="el85hen73vd7o" class="animable"></path><path d="M231.11,259.9s-8.13,2.16-10.77,2.44-7.65,3.84-5.4,3.92,10.65-3.72,12.9-3.64,6,.18,6.24-.78C234.56,260,231.11,259.9,231.11,259.9Z" style="fill: rgb(38, 50, 56); stroke: rgb(38, 50, 56); stroke-miterlimit: 10; stroke-width: 1.07731px; transform-origin: 224.25px 263.081px;" id="eln8abzl6xwlk" class="animable"></path><path d="M218.76,303.19c-.91.08-1.74.14-2.47.17-8.22.35-19-.27-29.46-5.48a44.31,44.31,0,0,1-12.48-10.17A136.11,136.11,0,0,1,209,274.61a5.65,5.65,0,1,0-2.59-11,145.71,145.71,0,0,0-38.92,15c-8.24-13.24-12.89-30.9-5-47.48,10.89-22.91,33.85-28.73,42-30.1-.95-.3-1.92-.57-2.91-.79-3.13-.69-6.13-1.2-9-1.57-19.22-2.53-38.79,3.33-52.76,16.77-7.62,7.34-14.08,17.35-15.2,30.58-1.93,22.63,4.12,34.89,12,45.78s13.89,37.89,13.89,37.89l71.29-13.88Z" style="fill: rgb(38, 50, 56); transform-origin: 173.029px 263.892px;" id="el1wc57d0ay8h" class="animable"></path></g><path d="M239.29,199.75a52.16,52.16,0,0,0-28.35-8.52h-.16a74.82,74.82,0,1,0,54.14,126.44,85.82,85.82,0,0,0-25.63-117.92Z" style="fill: none; stroke: rgb(38, 50, 56); stroke-miterlimit: 10; stroke-width: 1.07731px; transform-origin: 207.114px 266.05px;" id="ell7ebj1o1es" class="animable"></path><g id="elggcluaoolre"><ellipse cx="126.2" cy="269.45" rx="13.36" ry="19.01" style="fill: rgb(38, 50, 56); transform-origin: 126.2px 269.45px; transform: rotate(-1.75deg);" class="animable" id="el3wsb9u2knq6"></ellipse></g><path d="M286,353.72s-7.71-4.63-8.22-12.33.51-10.79.51-10.79-48.81-31.35-150.55,3.59c0,0-12.33,1.54-10.79,7.2s4.11,8.22,4.11,12.84S111.3,365,107.18,366.05c-1.49.37-7.52,3.46-15,7.49A178.08,178.08,0,0,0,154,417c23.23,9.66,49.55,14.56,78.22,14.56h0c35.33,0,69.66-7.48,97-15.85l-.6-46.6Z" style="fill: #00FFFF; transform-origin: 210.7px 374.616px;" id="elerhveu8v6kn" class="animable"></path><path d="M138.37,409.55c-11.92-25-27.29-47.29-41.46-47.61-1.91,0-6,1.4-11.55,3.79A180.14,180.14,0,0,0,138.37,409.55Z" style="fill: #00FFFF; transform-origin: 111.865px 385.745px;" id="elfwl1nc51owo" class="animable"></path><path d="M127.74,334.19s-12.33,1.54-10.79,7.2,4.11,8.22,4.11,12.84a5.22,5.22,0,0,1-.9,2.66C144.61,349.52,218.07,330.16,278,343a11.93,11.93,0,0,1-.22-1.62c-.52-7.71.51-10.79.51-10.79S229.48,299.25,127.74,334.19Z" style="fill: rgb(38, 50, 56); stroke: rgb(38, 50, 56); stroke-linejoin: round; stroke-width: 1.07731px; transform-origin: 197.553px 337.28px;" id="elz27dgdp1tao" class="animable"></path><path d="M116.37,350a8.22,8.22,0,0,1-4.82-14.89c14.24-10.29,46.17-19,83.32-22.73,36.68-3.68,69.51-1.59,85.67,5.47A8.22,8.22,0,0,1,274,332.87c-11.08-4.84-39.32-8-77.44-4.18-38.58,3.88-65.64,12.69-75.35,19.7A8.18,8.18,0,0,1,116.37,350Z" style="fill: #00FFFF; stroke: rgb(38, 50, 56); stroke-miterlimit: 10; stroke-width: 1.07731px; transform-origin: 196.496px 330.296px;" id="elfnlhqjc3fet" class="animable"></path><path d="M179.55,326.93c3-.28,6.11-.48,9.22-.56" style="fill: none; stroke: rgb(38, 50, 56); stroke-linecap: round; stroke-linejoin: round; stroke-width: 2.15462px; transform-origin: 184.16px 326.65px;" id="elkxbv5yfy9ic" class="animable"></path><path d="M113.86,346.53a190.51,190.51,0,0,1,57-18.54" style="fill: none; stroke: rgb(38, 50, 56); stroke-linecap: round; stroke-linejoin: round; stroke-width: 2.15462px; transform-origin: 142.36px 337.26px;" id="elicgubiip47n" class="animable"></path><path d="M117.32,360.11a30.08,30.08,0,0,1-9.75,5.82c10.9,7.54,21.83,24.83,30.8,43.62A167.6,167.6,0,0,0,154,417c.32.14.65.26,1,.39C141.62,384.71,124.85,366.93,117.32,360.11Z" style="fill: rgb(38, 50, 56); transform-origin: 131.285px 388.75px;" id="el98brftk14m" class="animable"></path><path d="M305.16,360.86a1.55,1.55,0,0,0-.05-.23l-13.53-4.89A634.65,634.65,0,0,1,306.53,422c1.72-.42,3.42-.84,5.11-1.28l-7.53-55.84A5.32,5.32,0,0,1,305.16,360.86Z" style="fill: rgb(38, 50, 56); transform-origin: 301.61px 388.87px;" id="el1a547ell0g2j" class="animable"></path><path d="M364.94,386c-6.47-4.81-24.36-16.84-53.67-27a5.43,5.43,0,0,0-7.16,5.84l7.53,55.84a428.24,428.24,0,0,0,41.57-13.07q5.78-2.13,11.41-4.7L367,391.45A5.42,5.42,0,0,0,364.94,386Z" style="fill: #00FFFF; transform-origin: 335.589px 389.691px;" id="el72d3b0zaada" class="animable"></path><polygon points="256.19 366.56 265.96 411.78 313.8 414.54 308.61 374.27 256.19 366.56" style="fill: #00FFFF; stroke: rgb(38, 50, 56); stroke-linecap: round; stroke-linejoin: round; stroke-width: 1.07731px; transform-origin: 284.995px 390.55px;" id="el0zck49w5unur" class="animable"></polygon><polygon points="256.19 366.56 250.03 375.81 259.28 421.54 265.96 411.78 256.19 366.56" style="fill: rgb(38, 50, 56); stroke: rgb(38, 50, 56); stroke-linecap: round; stroke-linejoin: round; stroke-width: 1.07731px; transform-origin: 257.995px 394.05px;" id="el8macyp93ebr" class="animable"></polygon><path d="M266,411.78l-6.7,10.29,43.12.89q3.08-.7,6.07-1.46l5.81-6.64Z" style="fill: rgb(38, 50, 56); transform-origin: 286.8px 417.37px;" id="ell7h64qei5g" class="animable"></path><ellipse cx="170.88" cy="389.39" rx="12.33" ry="10.96" style="fill: rgb(38, 50, 56); transform-origin: 170.88px 389.39px;" id="elyf7i9dxwwq" class="animable"></ellipse><ellipse cx="201.02" cy="385.28" rx="12.33" ry="10.96" style="fill: rgb(38, 50, 56); transform-origin: 201.02px 385.28px;" id="elw1nk8beojj8" class="animable"></ellipse></g><defs><clipPath id="freepik--clip-path--inject-9"><path d="M239.29,199.75a52.16,52.16,0,0,0-28.35-8.52h-.16a74.82,74.82,0,1,0,54.14,126.44,85.82,85.82,0,0,0-25.63-117.92Z" style="fill:none;stroke:#263238;stroke-miterlimit:10;stroke-width:1.0773124694824219px"></path></clipPath><clipPath id="freepik--clip-path-2--inject-9"><path d="M139.84,215.4c14-13.44,33.54-19.3,52.76-16.77,2.83.37,5.83.88,9,1.57,18.76,4.13,29.64,23.64,31.14,24.77s-2.25,12-2.25,12,15,43.9,13.13,50.66-25.14,14.26-25.14,14.26l3.38,13.88-71.29,13.88s-6-27-13.89-37.89-13.93-23.15-12-45.78C125.76,232.75,132.22,222.74,139.84,215.4Z" style="fill:#fff;stroke:#263238;stroke-miterlimit:10;stroke-width:1.0773124694824219px"></path></clipPath></defs><defs>     <filter id="active" height="200%">         <feMorphology in="SourceAlpha" result="DILATED" operator="dilate" radius="2"></feMorphology>                <feFlood flood-color="#32DFEC" flood-opacity="1" result="PINK"></feFlood>        <feComposite in="PINK" in2="DILATED" operator="in" result="OUTLINE"></feComposite>        <feMerge>            <feMergeNode in="OUTLINE"></feMergeNode>            <feMergeNode in="SourceGraphic"></feMergeNode>        </feMerge>    </filter>    <filter id="hover" height="200%">        <feMorphology in="SourceAlpha" result="DILATED" operator="dilate" radius="2"></feMorphology>                <feFlood flood-color="#ff0000" flood-opacity="0.5" result="PINK"></feFlood>        <feComposite in="PINK" in2="DILATED" operator="in" result="OUTLINE"></feComposite>        <feMerge>            <feMergeNode in="OUTLINE"></feMergeNode>            <feMergeNode in="SourceGraphic"></feMergeNode>        </feMerge>            <feColorMatrix type="matrix" values="0   0   0   0   0                0   1   0   0   0                0   0   0   0   0                0   0   0   1   0 "></feColorMatrix>    </filter></defs></svg>